# xmcd
#
# Track frame offsets:
#	150
#	16422
#	30693
#	48721
#	58427
#	70206
#	94230
#	111064
#	122919
#	136576
#	146362
#	157060
#	177666
#	189876
#
# Disc length: 2698 seconds
#
# Revision: 1
# Processed by: cddbd v1.5.2PL0 Copyright (c) Steve Scherf et al.
# Submitted via: EasyCDDAExtractor 11.5.0.1
#
DISCID=cc0a880e
DTITLE=The Gibson Brothers - Long Way Back Home
DYEAR=2004
DGENRE=Bluegrass
TTITLE0=Mountain Song
TTITLE1=Callie's Reel
TTITLE2=Dreams That End Like This
TTITLE3=The Way I Feel
TTITLE4=Ophelia
TTITLE5=Any Man In His Right Mind
TTITLE6=Long Way Back Home
TTITLE7=It's All Right With Me
TTITLE8=Alone With You
TTITLE9=I'm Not Wanted Here
TTITLE10=I Gotta Get Back To You
TTITLE11=Satan's Jeweled Crown
TTITLE12=He'd Take Her Back Again
TTITLE13=East Bound Train
EXTD=
EXTT0=
EXTT1=
EXTT2=
EXTT3=
EXTT4=
EXTT5=
EXTT6=
EXTT7=
EXTT8=
EXTT9=
EXTT10=
EXTT11=
EXTT12=
EXTT13=
PLAYORDER=
